<svg width="24" height="24" viewBox="0 0 24 24" fill="none" xmlns="http://www.w3.org/2000/svg">
<path d="M12 22C17.4842 22 22 17.4842 22 12C22 6.52541 17.4746 2 11.9904 2C6.51582 2 2 6.52541 2 12C2 17.4842 6.51582 22 12 22ZM8.90316 16.0844C8.35666 16.0844 7.92522 15.6529 7.92522 15.0872C7.92522 14.838 8.03068 14.5887 8.21285 14.4065L10.6002 12.0192L8.21285 9.62224C8.03068 9.44008 7.92522 9.1908 7.92522 8.94151C7.92522 8.38543 8.35666 7.95398 8.90316 7.95398C9.20038 7.95398 9.4209 8.04986 9.61266 8.24161L12 10.6194L14.4065 8.23202C14.6079 8.03068 14.8284 7.94439 15.116 7.94439C15.6625 7.94439 16.094 8.37584 16.094 8.92234C16.094 9.1908 16.0077 9.4209 15.8063 9.62224L13.4094 12.0192L15.7967 14.3969C15.9885 14.5791 16.0844 14.8284 16.0844 15.0872C16.0844 15.6529 15.6529 16.0844 15.0968 16.0844C14.8092 16.0844 14.5599 15.9885 14.3778 15.7967L12 13.419L9.63183 15.7967C9.44008 15.9885 9.20038 16.0844 8.90316 16.0844Z" fill="#595959"/>
</svg>
